PathFileType	4	(X/Y/Z)	c:\Git\powerlifing_model_clean\simulations\HC835B\Session1\HC835B_OGW_0002\marker_experimental.trc
DataRate	CameraRate	NumFrames	NumMarkers	Units	OrigDataRate	OrigDataStartFrame	OrigNumFrames
240.000000	240.000000	4	38	mm	240.000000	218	436
Frame#	Time	RPSI			LPSI			RASI			LASI			RTH1			RTH2			RTH3			RTH4			RSK1			RSK2			RSK3			RSK4			RCAL1			RCAL2			RCAL3			RST			RPT			RTN			RFMB			RSMB			RVMB			RFMH			RSMH			RVMH			RPM			LTH1			LTH2			LTH3			LTH4			LSK1			LSK2			LSK3			LSK4			LCAL1			LCAL2			LCAL3			LFMH			LVMH			
		X1	Y1	Z1	X2	Y2	Z2	X3	Y3	Z3	X4	Y4	Z4	X5	Y5	Z5	X6	Y6	Z6	X7	Y7	Z7	X8	Y8	Z8	X9	Y9	Z9	X10	Y10	Z10	X11	Y11	Z11	X12	Y12	Z12	X13	Y13	Z13	X14	Y14	Z14	X15	Y15	Z15	X16	Y16	Z16	X17	Y17	Z17	X18	Y18	Z18	X19	Y19	Z19	X20	Y20	Z20	X21	Y21	Z21	X22	Y22	Z22	X23	Y23	Z23	X24	Y24	Z24	X25	Y25	Z25	X26	Y26	Z26	X27	Y27	Z27	X28	Y28	Z28	X29	Y29	Z29	X30	Y30	Z30	X31	Y31	Z31	X32	Y32	Z32	X33	Y33	Z33	X34	Y34	Z34	X35	Y35	Z35	X36	Y36	Z36	X37	Y37	Z37	X38	Y38	Z38	

219	0.9083333333333333	462.633270263672	1150.314208984375	-1012.711730957031	573.9960937500001	1149.61474609375	-1007.028991699219	395.3208923339845	1116.656127929688	-807.5479736328127	631.3068237304689	1109.536743164063	-795.4599609375002	294.2557678222657	853.3731689453127	-788.402526855469	302.3258056640626	866.984069824219	-730.1870117187501	296.3130187988282	788.8416748046877	-733.3868408203126	314.8811645507813	799.8779907226565	-678.9222412109376	352.8484497070313	403.7297973632814	-854.1580200195315	344.1399536132813	364.9808959960938	-806.7666625976565	358.6582336425782	345.4360046386719	-862.9232177734377	362.7237854003907	309.3785705566407	-815.102233886719	434.0514221191407	245.3388824462891	-966.174743652344	472.3685913085939	214.715560913086	-969.467468261719	410.9402770996095	207.7821044921876	-986.855651855469	472.6288146972657	194.3031005859376	-900.9625244140627	376.2300109863282	184.0757751464844	-937.0325317382815	447.3630981445314	179.872299194336	-849.6319580078127	443.8313598632814	147.9992218017578	-831.7432250976565	391.0564575195314	156.9937744140625	-822.4471435546877	368.0625610351563	137.1163940429688	-914.3967285156252	448.6044921875001	94.90530395507814	-801.2346801757815	391.355194091797	95.6687469482422	-792.3983154296877	349.0017700195313	87.06634521484376	-855.7728271484377	395.8128356933595	61.67900466918947	-747.1715698242189	689.2601318359376	821.8366699218752	-894.878112792969	682.7783813476564	806.644958496094	-836.009948730469	677.8034057617189	738.3961181640626	-878.9566650390627	654.8563842773439	726.2800903320314	-823.730651855469	620.4369506835939	293.5597534179688	-996.190124511719	624.8156127929689	270.6907348632813	-948.0291748046877	615.4247436523439	238.3771514892579	-984.6949462890627	604.3798217773439	218.6913604736329	-932.4678955078127	551.2595214843751	94.15208435058595	-1052.444946289063	581.7987670898439	57.13110351562501	-1052.077514648438	523.1825561523439	55.31530380249025	-1049.47900390625	517.0487060546876	60.70968627929689	-826.4575805664065	622.8034667968751	36.75658416748048	-863.0043945312502	
220	0.9125	462.3860473632814	1150.67578125	-1005.799194335938	573.6710205078126	1149.5986328125	-1000.666015625	395.6887512207032	1116.708984375	-800.7449340820315	631.2714233398439	1109.197143554688	-789.2358398437502	294.2630615234376	854.0764770507815	-779.777526855469	302.8630676269532	868.0662841796877	-721.6397094726564	296.7629089355469	789.7978515625002	-724.6471557617189	315.7932434082032	800.826599121094	-670.3458862304689	352.7864990234376	400.5227966308595	-840.6430664062502	344.2044677734376	362.9264831542969	-792.1356201171877	358.6457519531251	342.4581298828126	-847.882263183594	362.6928710937501	307.4340209960938	-799.2022094726565	433.2199096679689	239.3009185791016	-948.4182128906252	471.897186279297	208.6362762451172	-951.6489257812502	410.358612060547	201.3127899169922	-968.6619873046877	471.8583374023439	189.5285186767578	-883.532165527344	375.6210327148438	179.2492370605469	-918.0501708984377	447.2065429687501	177.2840423583985	-830.7139282226565	443.4210510253907	145.6595611572266	-812.035095214844	390.9964294433595	155.42626953125	-802.3418579101565	367.4841308593751	132.6872253417969	-894.3655395507815	448.2330017089845	93.3663787841797	-780.208190917969	390.892059326172	94.4877166748047	-771.3103637695315	348.4128723144532	84.49315643310548	-834.2371215820315	395.2557678222657	61.5857391357422	-725.2325439453126	689.0324096679689	822.0473632812502	-890.7044067382815	682.2190551757814	806.4014892578127	-831.9754638671877	677.5494384765626	738.5816650390626	-875.5335693359377	654.2033081054689	726.0814819335939	-820.4039306640627	620.2864379882814	293.9710083007813	-995.3778076171877	624.6571655273439	271.0065307617188	-947.3134765625002	615.0991210937501	238.6821746826172	-983.9727783203127	604.3113403320314	218.9051971435547	-931.8823242187502	551.0947875976564	94.54415130615236	-1052.126953125	581.6117553710939	57.44910049438478	-1051.89892578125	523.1143798828126	55.74911117553712	-1049.177490234375	517.2848510742189	60.85120773315431	-825.944763183594	622.8201293945314	36.71706008911134	-862.9748535156252	
221	0.9166666666666666	461.9642028808595	1150.5693359375	-999.1297607421877	573.5136718750001	1149.5947265625	-994.052917480469	396.0329589843751	1116.749755859375	-793.7548828125002	631.2811279296876	1108.719970703125	-783.0125732421877	294.3623046875001	854.5677490234377	-771.3277587890627	303.4669799804688	868.6572265625002	-713.3914794921876	297.2155761718751	790.412536621094	-716.0335693359376	316.7335510253907	801.8242797851565	-661.8197021484376	352.7258300781251	397.5080871582032	-826.6872558593752	344.1659851074219	360.9491577148438	-777.4040527343752	358.5545043945313	339.0415649414063	-832.7849121093752	362.6799316406251	305.3761291503907	-783.3460083007815	432.8385620117189	233.4093780517579	-931.1123046875002	471.3519592285157	202.4559783935547	-933.711608886719	409.8067016601564	194.803695678711	-950.313903808594	471.4430541992189	185.2589721679688	-864.9119873046877	374.9439697265626	174.2946929931641	-898.8692626953127	446.8698730468751	174.4399566650391	-811.7999267578127	443.173065185547	143.5423736572266	-792.0967407226565	390.5907592773439	153.4077911376953	-782.7986450195315	366.8610839843751	128.3287353515625	-874.172302246094	447.1626892089845	91.11656951904298	-759.8209228515626	390.3011169433595	93.40505981445314	-750.1764526367189	347.7562561035157	81.66281127929689	-812.8050537109377	394.739471435547	61.59483718872072	-703.3309326171876	689.6245117187501	822.1304321289065	-886.741638183594	681.6929931640626	806.1773071289065	-827.9182128906252	677.1895751953126	738.5357055664064	-872.017272949219	653.6384887695314	725.7055664062501	-817.0784301757815	620.1311035156251	294.3505859375001	-994.580261230469	624.5230102539064	271.2419433593751	-946.4965820312502	615.4470825195314	239.1714172363282	-983.0237426757815	604.2059936523439	219.1459960937501	-931.2305908203127	550.9101562500001	94.94316864013673	-1051.882080078125	581.4278564453126	57.864315032959	-1051.770385742188	522.9356689453126	56.1034507751465	-1048.973388671875	517.3889160156251	60.7973098754883	-825.728698730469	622.8519897460939	36.68177032470704	-862.9597167968752	
222	0.9208333333333333	461.5240478515626	1150.330444335938	-992.570983886719	573.1513061523439	1149.455444335938	-987.644958496094	396.3454589843751	1116.569091796875	-786.9983520507815	631.3052368164064	1108.168701171875	-776.8232421875002	294.4310302734376	855.0053710937502	-762.8986206054689	303.9559326171876	869.550964355469	-704.8054809570314	297.7057495117188	791.0610961914065	-707.4682006835939	317.7156677246094	802.3128051757815	-653.5874023437501	352.5974426269532	394.321258544922	-812.5936279296877	344.4667663574219	358.9496154785157	-762.6289062500001	358.3642883300782	335.9486083984376	-817.3239746093752	362.5798950195313	303.0618896484376	-767.3127441406251	432.4045715332032	227.4275665283204	-913.693786621094	470.7544555664064	196.2291717529297	-915.5948486328127	409.2274169921876	188.5626220703125	-931.6569824218752	470.9829406738282	180.812728881836	-846.2487792968752	374.4302062988282	169.130599975586	-879.7366943359377	446.4911499023439	171.533203125	-792.7408447265627	442.7078857421876	141.2222747802735	-772.201354980469	390.184783935547	151.4825286865235	-763.2035522460939	366.2304077148438	123.9638748168946	-853.8718261718752	446.6087341308595	89.66587066650392	-738.6270141601564	389.8029785156251	92.34291076660158	-728.9967651367189	347.1434936523438	79.21851348876955	-791.2016601562502	394.2175903320314	61.95987701416017	-681.1735839843751	688.6837768554689	822.2212524414065	-882.2661743164065	681.0907592773439	805.793884277344	-823.863220214844	676.8779907226564	738.4948730468751	-868.4400024414065	653.1107788085939	725.1079101562501	-813.840515136719	620.1470947265626	294.8782348632813	-993.562194824219	624.6381835937501	271.5665283203126	-945.7066650390627	615.3407592773439	239.5871734619141	-982.3502197265627	604.1029052734376	219.3241271972657	-930.610046386719	550.7153320312501	95.28759002685548	-1051.597412109375	581.2251586914064	58.22999191284181	-1051.63671875	522.8265991210939	56.77842712402345	-1048.7744140625	517.4366455078126	60.71425628662111	-825.5401000976565	622.8753662109376	36.64380264282227	-862.9311523437502	
